<?xml version="1.0" encoding="UTF-8"?>
<svg id="Layer_2" data-name="Layer 2" xmlns="http://www.w3.org/2000/svg" viewBox="0 0 343.53 316.18">
  <defs>
    <style>
      .cls-1, .cls-2, .cls-3, .cls-4 {
        stroke: #b02728;
      }

      .cls-1, .cls-2, .cls-4 {
        fill: none;
        stroke-width: 8px;
      }

      .cls-1, .cls-3 {
        stroke-linejoin: round;
      }

      .cls-1, .cls-3, .cls-4 {
        stroke-linecap: round;
      }

      .cls-2, .cls-4 {
        stroke-miterlimit: 10;
      }

      .cls-3 {
        fill: #b02728;
        font-family: MyriadPro-Regular, 'Myriad Pro';
        font-size: 79.73px;
        stroke-width: 2px;
      }
    </style>
  </defs>
  <g id="Layer_2-2" data-name="Layer 2">
    <path class="cls-2" d="m339.53,59.12v183.77c0,10.13-8.22,18.35-18.35,18.35H22.35c-10.13,0-18.35-8.22-18.35-18.35V59.12c0-10.13,8.22-18.35,18.35-18.35h126.71v86.91c0,19.7,37.13,35.68,82.94,35.68s82.94-15.98,82.94-35.68V40.77h6.24c10.13,0,18.35,8.22,18.35,18.35Z"/>
    <path class="cls-2" d="m314.94,39.68c0,.36,0,.73-.04,1.09-.56,8.11-7.41,15.53-18.53,21.41-15.21,8.04-38.39,13.18-64.37,13.18s-49.16-5.14-64.37-13.18c-11.12-5.88-17.97-13.3-18.53-21.41-.03-.36-.04-.73-.04-1.09,0-19.71,37.13-35.68,82.94-35.68s82.94,15.97,82.94,35.68Z"/>
    <line class="cls-2" x1="149.06" y1="40.77" x2="149.06" y2="39.68"/>
    <path class="cls-2" d="m314.94,84.68v43c0,19.7-37.13,35.68-82.94,35.68s-82.94-15.98-82.94-35.68v-43c0,8.07,6.23,15.52,16.74,21.5,15.14,8.61,39.16,14.18,66.2,14.18s51.06-5.57,66.2-14.18c10.51-5.98,16.74-13.43,16.74-21.5Z"/>
    <path class="cls-2" d="m314.94,40.77v43.91c0,8.07-6.23,15.52-16.74,21.5-15.14,8.61-39.16,14.18-66.2,14.18s-51.06-5.57-66.2-14.18c-10.51-5.98-16.74-13.43-16.74-21.5v-43.91h.04c.56,8.11,7.41,15.53,18.53,21.41,15.21,8.04,38.39,13.18,64.37,13.18s49.16-5.14,64.37-13.18c11.12-5.88,17.97-13.3,18.53-21.41h.04Z"/>
    <line class="cls-2" x1="314.94" y1="40.77" x2="314.94" y2="39.68"/>
    <text class="cls-3" transform="translate(27.28 155.83) scale(.86 1)"><tspan x="0" y="0">&lt;/&gt;</tspan></text>
    <line class="cls-4" x1="35.06" y1="80.57" x2="127.5" y2="80.57"/>
    <line class="cls-4" x1="35.06" y1="195.71" x2="74.94" y2="195.71"/>
    <line class="cls-4" x1="103.88" y1="195.71" x2="167.06" y2="195.71"/>
    <line class="cls-4" x1="194.59" y1="195.71" x2="221.77" y2="195.71"/>
    <line class="cls-4" x1="248.59" y1="195.71" x2="314.94" y2="195.71"/>
    <line class="cls-4" x1="314.94" y1="220.77" x2="286" y2="220.77"/>
    <line class="cls-4" x1="264.47" y1="220.77" x2="223.88" y2="220.77"/>
    <line class="cls-4" x1="199.18" y1="220.77" x2="127.5" y2="220.77"/>
    <line class="cls-4" x1="103.88" y1="220.77" x2="78.82" y2="220.77"/>
    <line class="cls-4" x1="64.35" y1="220.77" x2="35.06" y2="220.77"/>
    <rect class="cls-1" x="154.4" y="261.24" width="33.53" height="36.12"/>
    <rect class="cls-1" x="99.29" y="297.36" width="143.74" height="14.82"/>
  </g>
</svg>