<?xml version="1.0" encoding="UTF-8"?>
<svg id="Layer_2" data-name="Layer 2" xmlns="http://www.w3.org/2000/svg" viewBox="0 0 384.94 383.47">
  <defs>
    <style>
      .cls-1, .cls-2, .cls-3, .cls-4, .cls-5, .cls-6, .cls-7 {
        stroke: #b02728;
      }

      .cls-1, .cls-2, .cls-3, .cls-4, .cls-5, .cls-7 {
        stroke-miterlimit: 10;
      }

      .cls-1, .cls-2, .cls-3, .cls-5, .cls-7 {
        fill: none;
      }

      .cls-1, .cls-4, .cls-7 {
        stroke-width: 8px;
      }

      .cls-2 {
        stroke-width: 7px;
      }

      .cls-3 {
        stroke-width: 5px;
      }

      .cls-4, .cls-6 {
        fill: #b02728;
      }

      .cls-4, .cls-6, .cls-7 {
        stroke-linecap: round;
      }

      .cls-5 {
        stroke-width: 3px;
      }

      .cls-6 {
        font-family: MyriadPro-Regular, 'Myriad Pro';
        font-size: 62.33px;
        stroke-linejoin: round;
        stroke-width: 4px;
      }
    </style>
  </defs>
  <g id="Layer_2-2" data-name="Layer 2">
    <path class="cls-1" d="m380.94,36.35v242.12c0,7.5-6.08,13.59-13.59,13.59H17.59c-7.51,0-13.59-6.09-13.59-13.59V36.35c0-7.5,6.08-13.59,13.59-13.59h46.06v174.47c0,9.07,7.34,16.42,16.41,16.42h227.29c9.07,0,16.41-7.35,16.41-16.42V22.76h43.59c7.51,0,13.59,6.09,13.59,13.59Z"/>
    <path class="cls-1" d="m323.76,20.41v176.82c0,9.07-7.34,16.42-16.41,16.42H80.06c-9.07,0-16.41-7.35-16.41-16.42V20.41c0-9.06,7.34-16.41,16.41-16.41h227.29c9.07,0,16.41,7.35,16.41,16.41Z"/>
    <rect class="cls-5" x="268.06" y="14.94" width="17.29" height="13.76" rx="6.88" ry="6.88"/>
    <rect class="cls-5" x="293.06" y="14.94" width="17.29" height="13.76" rx="6.88" ry="6.88"/>
    <rect class="cls-5" x="243.06" y="14.94" width="17.29" height="13.76" rx="6.88" ry="6.88"/>
    <line class="cls-1" x1="63.65" y1="43.17" x2="323.76" y2="43.17"/>
    <text class="cls-6" transform="translate(93.14 116.56) scale(1.23 1)"><tspan x="0" y="0">&lt;/&gt;</tspan></text>
    <path class="cls-2" d="m235.56,122.35l14.04,50.18c.02.06.09.06.11,0l10.62-25.04s.03-.03.05-.04l27.51-4.02c.06,0,.07-.09.01-.12l-52.26-21.05s-.1.02-.08.07Z"/>
    <line class="cls-4" x1="98.18" y1="143.76" x2="181.17" y2="143.76"/>
    <line class="cls-4" x1="98.18" y1="163.53" x2="139.68" y2="163.53"/>
    <line class="cls-4" x1="98.18" y1="183.29" x2="162.82" y2="183.29"/>
    <path class="cls-7" d="m216.88,355.47h-46.37c-4.83,0-8.61-3.11-8.19-6.73l2.18-18.68,4.33-37h49.75l4.33,37,2.18,18.67c.42,3.62-3.37,6.74-8.2,6.74Z"/>
    <path class="cls-7" d="m284.72,379.47H101.38c-8.54,0-14.33-6.22-11.03-11.85l18.89-32.31c1.86-3.18,6.21-5.25,11.02-5.25h42.95l-2.29,18.68c-.45,3.62,3.54,6.73,8.63,6.73h48.85c5.09,0,9.09-3.12,8.64-6.74l-2.29-18.67h41.1c4.82,0,9.17,2.07,11.03,5.25l18.89,32.31c3.29,5.63-2.49,11.85-11.03,11.85Z"/>
    <path class="cls-3" d="m323.76,37.65h32.81c5.33,0,9.65,4.32,9.65,9.65v220.22c0,5.33-4.32,9.65-9.65,9.65H29.52c-5.33,0-9.65-4.32-9.65-9.65V47.3c0-5.33,4.32-9.65,9.65-9.65h34.13"/>
  </g>
</svg>