<?xml version="1.0" encoding="UTF-8"?>
<svg id="Layer_2" data-name="Layer 2" xmlns="http://www.w3.org/2000/svg" viewBox="0 0 404.29 395.11">
  <defs>
    <style>
      .cls-1 {
        stroke-width: 8.51px;
      }

      .cls-1, .cls-2, .cls-3 {
        fill: none;
        stroke: #af2828;
        stroke-miterlimit: 10;
      }

      .cls-1, .cls-3 {
        stroke-linecap: round;
      }

      .cls-2 {
        stroke-width: 4px;
      }

      .cls-3 {
        stroke-width: 9px;
      }
    </style>
  </defs>
  <g id="Layer_2-2" data-name="Layer 2">
    <path class="cls-3" d="m320.26,298.61v61.65c0,16.77-13.59,30.35-30.35,30.35H100.73c-16.76,0-30.35-13.58-30.35-30.35v-89.41"/>
    <path class="cls-3" d="m70.38,88.73v-53.88c0-16.76,13.59-30.35,30.35-30.35h189.18c16.76,0,30.35,13.59,30.35,30.35v56.24"/>
    <circle class="cls-2" cx="195.32" cy="30.38" r="6.18"/>
    <path class="cls-3" d="m31.76,122.2c-4.97,3.94-9.39,8.52-13.16,13.61"/>
    <path class="cls-3" d="m65.59,107.44c3.55-.55,7.2-.83,10.91-.83,3.33,0,6.62.23,9.83.67"/>
    <path class="cls-3" d="m147.71,167.92c.52,3.49.79,7.06.79,10.69,0,2.87-.17,5.69-.5,8.47"/>
    <path class="cls-3" d="m66.48,249.91c3.27.46,6.62.7,10.02.7,4.22,0,8.35-.36,12.37-1.06"/>
    <path class="cls-3" d="m34.2,236.87c-5.6-4.06-10.59-8.92-14.8-14.41"/>
    <path class="cls-3" d="m120.81,235.36h.01c5.12-4.01,9.7-8.71,13.58-13.94h0"/>
    <path class="cls-3" d="m134.4,135.81c-3.93-5.31-8.58-10.06-13.8-14.11"/>
    <path class="cls-3" d="m5.5,190.61c-.66-3.9-1-7.91-1-12,0-2.58.14-5.13.4-7.64"/>
    <path class="cls-3" d="m59.57,125.22c-3.98,1.26-7.77,2.95-11.31,5.03"/>
    <path class="cls-3" d="m130.35,163.18c-1.18-4.12-2.83-8.06-4.87-11.73"/>
    <path class="cls-3" d="m62.55,232.86c-4.6-1.18-8.98-2.93-13.04-5.17"/>
    <path class="cls-3" d="m27.06,152.3c-2.07,3.88-3.7,8.04-4.82,12.4"/>
    <path class="cls-3" d="m28.49,207.45c-2.36-3.93-4.26-8.17-5.61-12.65"/>
    <path class="cls-3" d="m130.58,193.19c-1.09,4.03-2.61,7.88-4.52,11.49"/>
    <path class="cls-3" d="m103.49,227.69c-3.44,1.89-7.11,3.44-10.95,4.59"/>
    <path class="cls-3" d="m103.36,129.47c-3.52-1.94-7.28-3.5-11.21-4.64"/>
    <circle class="cls-3" cx="76.5" cy="178.61" r="32"/>
    <line class="cls-3" x1="65.59" y1="107.44" x2="59.57" y2="125.22"/>
    <line class="cls-3" x1="86.3" y1="107.18" x2="92.15" y2="124.83"/>
    <line class="cls-3" x1="120.6" y1="121.7" x2="103.36" y2="129.47"/>
    <line class="cls-3" x1="134.4" y1="135.81" x2="125.48" y2="151.45"/>
    <line class="cls-3" x1="130.34" y1="163.18" x2="148.5" y2="168.14"/>
    <line class="cls-3" x1="148" y1="187.08" x2="130.58" y2="193.19"/>
    <line class="cls-3" x1="125.99" y1="204.54" x2="134.4" y2="221.42"/>
    <line class="cls-3" x1="120.82" y1="235.36" x2="103.18" y2="227.55"/>
    <line class="cls-3" x1="92.54" y1="232.28" x2="88.87" y2="249.56"/>
    <line class="cls-3" x1="66.48" y1="249.92" x2="62.55" y2="232.86"/>
    <line class="cls-3" x1="49.51" y1="227.69" x2="34.19" y2="236.88"/>
    <line class="cls-3" x1="19.39" y1="222.47" x2="28.54" y2="207.36"/>
    <line class="cls-3" x1="22.99" y1="194.83" x2="5.49" y2="190.61"/>
    <line class="cls-3" x1="4.9" y1="170.97" x2="22.24" y2="164.7"/>
    <line class="cls-3" x1="27.06" y1="152.3" x2="18.6" y2="135.81"/>
    <line class="cls-3" x1="31.76" y1="122.2" x2="48.26" y2="130.25"/>
    <rect class="cls-3" x="195.32" y="91.09" width="204.47" height="207.52" rx="22" ry="22"/>
    <rect class="cls-3" x="218.62" y="118.38" width="154.12" height="37.41" rx="4.35" ry="4.35"/>
    <rect class="cls-3" x="217.68" y="177.5" width="55.53" height="41.35" rx="6.32" ry="6.32"/>
    <rect class="cls-1" x="314.62" y="235.36" width="58.12" height="39.49" rx="7.27" ry="7.27"/>
    <line class="cls-3" x1="320.26" y1="183.09" x2="372.73" y2="183.09"/>
    <line class="cls-3" x1="320.26" y1="198.94" x2="346.5" y2="198.94"/>
    <line class="cls-3" x1="320.26" y1="214.85" x2="360.97" y2="214.85"/>
    <line class="cls-3" x1="218.62" y1="246.14" x2="260.03" y2="246.14"/>
    <line class="cls-3" x1="218.62" y1="263.79" x2="274.15" y2="263.79"/>
  </g>
</svg>